# Blender v2.72 (sub 0) OBJ File: ''
# www.blender.org
mtllib mesh.mtl
o (null)
v 0.020944 -0.040315 -0.095696
v -0.021929 -0.002654 -0.116934
v 0.068356 0.003377 -0.075463
v -0.021023 0.074751 -0.092500
v 0.030604 0.036624 -0.086171
v -0.022401 -0.001723 0.062467
v 0.003465 -0.037217 0.055718
v 0.043582 0.004555 0.048411
v 0.018349 0.083633 -0.039892
v -0.029698 0.089502 -0.008773
v 0.010544 0.074726 0.002943
v 0.000054 0.050085 0.038721
v -0.014478 0.097669 -0.053457
v -0.015411 -0.076592 -0.097380
v 0.085256 -0.116021 -0.083235
v 0.162818 -0.095749 -0.062213
v 0.090009 0.017515 -0.033398
v 0.182389 -0.088885 -0.019593
v 0.235876 -0.176245 -0.046967
v 0.169743 -0.183871 -0.076375
v 0.252255 -0.156112 -0.008029
v 0.049738 -0.128861 -0.067045
v -0.010682 -0.099069 -0.055872
v 0.149460 -0.210092 -0.054434
v 0.134567 -0.223347 -0.010747
v -0.015249 -0.075814 -0.011859
v 0.043817 -0.129865 -0.000041
v 0.033198 -0.135994 -0.042703
v 0.120287 -0.082687 0.054642
v 0.164826 -0.080445 0.023154
v 0.076318 0.011360 0.016980
v 0.049390 -0.089077 0.039735
v -0.001185 -0.065716 0.051260
v 0.233042 -0.140346 0.032310
v 0.109020 -0.137985 0.051748
v 0.242726 -0.190701 0.065558
v 0.207824 -0.205388 0.067296
v 0.177815 -0.213473 0.056140
v 0.143053 -0.218228 0.032016
v -0.006814 -0.079328 0.031918
v 0.475501 -0.327900 0.034706
v 0.470974 -0.323297 0.001580
v 0.441944 -0.306423 0.001813
v 0.428983 -0.308774 0.026660
v 0.371948 -0.322328 -0.046681
v 0.408399 -0.355090 -0.039813
v 0.391280 -0.385899 -0.033515
v 0.425552 -0.395637 -0.042254
v 0.444637 -0.372523 -0.043445
v 0.454654 -0.353092 -0.035741
v 0.431972 -0.325843 -0.023413
v 0.468610 -0.335325 -0.019584
v 0.375428 -0.402820 -0.003169
v 0.340236 -0.368409 0.003937
v 0.427127 -0.426834 -0.025641
v 0.430430 -0.381002 -0.048141
v 0.377948 -0.408386 0.027056
v 0.404282 -0.430871 0.001855
v 0.404105 -0.433002 0.032141
v 0.313555 -0.230029 -0.036472
v 0.328386 -0.219018 0.005389
v 0.276427 -0.253758 -0.065719
v 0.422739 -0.321439 0.056550
v 0.408492 -0.353117 0.058389
v 0.447858 -0.352662 0.070844
v 0.466968 -0.337408 0.058658
v 0.378310 -0.361163 0.066521
v 0.326062 -0.317676 0.062722
v 0.350952 -0.362225 0.044513
v 0.354606 -0.306828 0.065750
v 0.381752 -0.285434 0.051328
v 0.376309 -0.396278 0.049303
v 0.404572 -0.422619 0.054001
v 0.410772 -0.397334 0.072213
v 0.439192 -0.371196 0.069187
v 0.281408 -0.192582 0.041386
v 0.239309 -0.284142 0.040626
v 0.055637 0.053110 -0.036967
v 0.047200 0.048047 0.010581
v 0.298069 -0.321724 0.042204
v 0.279903 -0.319288 0.002108
v 0.278453 -0.301386 -0.043686
vt 0.162793 0.890910
vt 0.176720 0.898290
vt 0.163853 0.913810
vt 0.195510 0.926020
vt 0.181750 0.921960
vt 0.096450 0.884110
vt 0.105150 0.882130
vt 0.119920 0.900230
vt 0.123647 0.933977
vt 0.111020 0.926090
vt 0.122730 0.923570
vt 0.107450 0.905990
vt 0.113057 0.938927
vt 0.963120 0.989926
vt 0.945510 0.992776
vt 0.948700 0.955470
vt 0.920680 0.993206
vt 0.922000 0.940450
vt 0.905720 0.988086
vt 0.904260 0.934870
vt 0.927350 0.896190
vt 0.947150 0.911920
vt 0.910150 0.895930
vt 0.961300 0.959920
vt 0.972470 0.981466
vt 0.964890 0.907700
vt 0.985070 0.919080
vt 0.986490 0.978806
vt 0.985690 0.954990
vt 0.971000 0.960520
vt 0.853070 0.986946
vt 0.870510 0.949450
vt 0.871680 0.991226
vt 0.888940 0.941030
vt 0.887090 0.988676
vt 0.849880 0.966780
vt 0.844480 0.982536
vt 0.891310 0.904970
vt 0.851790 0.936390
vt 0.874240 0.889280
vt 0.830269 0.982416
vt 0.860090 0.894110
vt 0.848810 0.904510
vt 0.835810 0.915450
vt 0.824569 0.958410
vt 0.822560 0.914810
vt 0.839180 0.979666
vt 0.903080 0.792440
vt 0.916760 0.794760
vt 0.915360 0.806200
vt 0.902030 0.808600
vt 0.949260 0.821990
vt 0.951610 0.803660
vt 0.965290 0.805610
vt 0.960830 0.792500
vt 0.947810 0.792190
vt 0.938000 0.795170
vt 0.931210 0.805640
vt 0.927270 0.794460
vt 0.983260 0.805430
vt 0.986650 0.814950
vt 0.972120 0.789320
vt 0.953570 0.794840
vt 0.994970 0.804180
vt 0.984050 0.791330
vt 0.997770 0.791380
vt 0.928020 0.857860
vt 0.908300 0.859350
vt 0.948510 0.873310
vt 0.884640 0.806570
vt 0.867910 0.803610
vt 0.878710 0.792900
vt 0.890670 0.791480
vt 0.857370 0.805850
vt 0.855060 0.841000
vt 0.840350 0.816250
vt 0.867650 0.832940
vt 0.885850 0.830950
vt 0.841240 0.804280
vt 0.828839 0.815350
vt 0.834379 0.804180
vt 0.837169 0.791380
vt 0.843440 0.792080
vt 0.854780 0.792960
vt 0.867810 0.792600
vt 0.889110 0.879500
vt 0.839950 0.868250
vt 0.196830 0.937477
vt 0.183450 0.931467
vt 0.171110 0.926707
vt 0.134210 0.914310
vt 0.145337 0.924467
vt 0.130550 0.919640
vt 0.137277 0.930007
vt 0.840130 0.844790
vt 0.986180 0.845730
vt 0.827679 0.844750
vt 0.965090 0.855640
vt 0.163543 0.922267
vn 0.279000 0.002700 -0.960300
vn 0.378200 0.145700 -0.914200
vn 0.539600 0.363000 -0.759600
vn 0.472200 0.547900 -0.690500
vn 0.504500 0.435600 -0.745500
vn 0.190600 0.164100 0.967900
vn 0.104900 -0.069300 0.992100
vn 0.329800 0.365800 0.870300
vn 0.517500 0.849200 -0.104800
vn 0.233900 0.902800 0.360900
vn 0.335400 0.835900 0.434400
vn 0.294700 0.598600 0.744800
vn 0.447200 0.877300 -0.174400
vn -0.155700 -0.485500 -0.860300
vn 0.022500 -0.202400 -0.979000
vn 0.518400 0.403400 -0.754000
vn 0.739900 0.654800 -0.153800
vn 0.710800 0.685900 -0.155500
vn 0.491000 0.460200 -0.739600
vn 0.020700 -0.155200 -0.987600
vn 0.659500 0.704900 -0.261000
vn -0.338500 -0.668700 -0.662000
vn -0.597300 -0.794200 -0.111300
vn -0.412200 -0.646200 -0.642200
vn -0.605400 -0.791100 -0.087400
vn -0.558100 -0.770100 0.308900
vn -0.647400 -0.600000 0.469800
vn -0.615800 -0.775200 -0.140600
vn 0.179600 0.256300 0.949800
vn 0.601000 0.666600 0.441000
vn 0.628600 0.601400 0.493100
vn -0.336800 -0.528000 0.779600
vn -0.012500 -0.464100 0.885700
vn 0.590500 0.693100 0.413300
vn -0.375600 -0.235500 0.896300
vn 0.239900 0.326100 0.914400
vn -0.136100 -0.067800 0.988300
vn -0.373800 -0.378200 0.846900
vn -0.585600 -0.627300 0.513300
vn -0.197600 -0.952000 0.233600
vn 0.348700 0.883700 0.312100
vn 0.488600 0.843700 -0.222500
vn 0.504500 0.840800 -0.196200
vn 0.460900 0.803600 0.376600
vn 0.226700 0.071000 -0.971300
vn 0.045700 0.098100 -0.994100
vn -0.386900 -0.424800 -0.818400
vn -0.368600 -0.288200 -0.883800
vn 0.074900 0.350300 -0.933700
vn 0.125200 0.455900 -0.881200
vn 0.311700 0.516100 -0.797800
vn 0.301900 0.672200 -0.676000
vn -0.658100 -0.657400 -0.367000
vn -0.676900 -0.726100 -0.120200
vn -0.475000 -0.570200 -0.670200
vn -0.262100 0.086100 -0.961200
vn -0.718600 -0.684200 0.124100
vn -0.632500 -0.707200 -0.316100
vn -0.696500 -0.704600 0.135800
vn 0.512600 0.554000 -0.656000
vn 0.647500 0.761200 -0.036800
vn 0.111900 -0.009900 -0.993700
vn 0.158100 0.532500 0.831500
vn -0.015400 0.199700 0.979700
vn -0.120700 0.290200 0.949300
vn 0.235200 0.746900 0.622000
vn -0.201600 -0.126800 0.971200
vn -0.275900 -0.337000 0.900100
vn -0.632000 -0.581400 0.512300
vn 0.129000 0.107800 0.985700
vn 0.454800 0.527100 0.717900
vn -0.669600 -0.510900 0.539000
vn -0.630700 -0.578200 0.517700
vn -0.330000 -0.094400 0.939200
vn -0.239300 0.165100 0.956800
vn 0.562200 0.631200 0.534300
vn -0.502600 -0.708900 0.494800
vn 0.678500 0.714500 -0.170400
vn 0.571600 0.683800 0.453500
vn -0.518700 -0.709700 0.476600
vn -0.577200 -0.814700 -0.055100
vn -0.417800 -0.649900 -0.634800
usemtl Facos
s 1
f 1/1/1 2/2/2 3/3/3
f 2/2/2 4/4/4 5/5/5
f 5/5/5 3/3/3 2/2/2
f 6/6/6 7/7/7 8/8/8
f 9/9/9 10/10/10 11/11/11
f 11/11/11 10/10/10 12/12/12
f 13/13/13 10/10/10 9/9/9
f 8/8/8 12/12/12 6/6/6
f 14/14/14 1/15/1 15/16/15
f 1/15/1 3/17/3 16/18/16
f 15/16/15 1/15/1 16/18/16
f 3/17/3 17/19/17 18/20/18
f 16/18/16 3/17/3 18/20/18
f 16/18/16 19/21/19 20/22/20
f 15/16/15 16/18/16 20/22/20
f 16/18/16 18/20/18 21/23/21
f 19/21/19 16/18/16 21/23/21
f 22/24/22 14/14/14 15/16/15
f 14/14/14 22/24/22 23/25/23
f 24/26/24 25/27/25 22/24/22
f 24/26/24 22/24/22 15/16/15
f 20/22/20 24/26/24 15/16/15
f 26/28/26 23/25/23 27/29/27
f 25/27/25 27/29/27 28/30/28
f 27/29/27 23/25/23 28/30/28
f 23/25/23 22/24/22 28/30/28
f 22/24/22 25/27/25 28/30/28
f 7/31/7 29/32/29 8/33/8
f 29/32/29 30/34/30 31/35/31
f 8/33/8 29/32/29 31/35/31
f 29/32/29 7/31/7 32/36/32
f 17/19/17 31/35/31 30/34/30
f 18/20/18 17/19/17 30/34/30
f 32/36/32 7/31/7 33/37/33
f 34/38/34 21/23/21 18/20/18
f 30/34/30 34/38/34 18/20/18
f 35/39/35 36/40/36 29/32/29
f 32/36/32 35/39/35 29/32/29
f 29/32/29 36/40/36 34/38/34
f 30/34/30 29/32/29 34/38/34
f 26/41/26 35/39/35 32/36/32
f 35/39/35 37/42/37 36/40/36
f 38/43/38 37/42/37 35/39/35
f 38/43/38 35/39/35 39/44/39
f 39/44/39 35/39/35 27/45/27
f 35/39/35 26/41/26 27/45/27
f 25/46/25 39/44/39 27/45/27
f 26/41/26 32/36/32 40/47/40
f 32/36/32 33/37/33 40/47/40
f 41/48/41 42/49/42 43/50/43
f 44/51/44 41/48/41 43/50/43
f 45/52/45 46/53/46 47/54/47
f 48/55/48 47/54/47 46/53/46
f 49/56/49 46/53/46 50/57/50
f 46/53/46 45/52/45 51/58/51
f 50/57/50 46/53/46 51/58/51
f 50/57/50 51/58/51 52/59/52
f 43/50/43 42/49/42 52/59/52
f 51/58/51 43/50/43 52/59/52
f 53/60/53 54/61/54 47/54/47
f 55/62/55 47/54/47 48/55/48
f 46/53/46 56/63/56 48/55/48
f 49/56/49 56/63/56 46/53/46
f 47/54/47 55/62/55 53/60/53
f 57/64/57 54/61/54 53/60/53
f 53/60/53 58/65/58 59/66/59
f 57/64/57 53/60/53 59/66/59
f 60/67/60 19/21/19 21/23/21
f 61/68/61 60/67/60 21/23/21
f 62/69/62 20/22/20 19/21/19
f 60/67/60 62/69/62 19/21/19
f 62/69/62 24/26/24 20/22/20
f 62/69/62 45/52/45 47/54/47
f 60/67/60 51/58/51 45/52/45
f 62/69/62 60/67/60 45/52/45
f 53/60/53 55/62/55 58/65/58
f 60/67/60 61/68/61 43/50/43
f 51/58/51 60/67/60 43/50/43
f 44/51/44 43/50/43 61/68/61
f 63/70/63 64/71/64 65/72/65
f 66/73/66 63/70/63 65/72/65
f 44/51/44 63/70/63 66/73/66
f 41/48/41 44/51/44 66/73/66
f 67/74/67 68/75/68 69/76/69
f 70/77/70 68/75/68 67/74/67
f 64/71/64 70/77/70 67/74/67
f 71/78/71 70/77/70 64/71/64
f 63/70/63 71/78/71 64/71/64
f 44/51/44 71/78/71 63/70/63
f 72/79/72 69/76/69 54/80/54
f 57/81/57 72/79/72 54/80/54
f 57/81/57 59/82/59 73/83/73
f 72/79/72 57/81/57 73/83/73
f 72/79/72 67/74/67 69/76/69
f 72/79/72 73/83/73 74/84/74
f 67/74/67 72/79/72 74/84/74
f 64/71/64 67/74/67 74/84/74
f 75/85/75 64/71/64 74/84/74
f 75/85/75 65/72/65 64/71/64
f 76/86/76 61/68/61 34/38/34
f 36/40/36 76/86/76 34/38/34
f 34/38/34 61/68/61 21/23/21
f 39/44/39 25/46/25 77/87/77
f 38/43/38 39/44/39 77/87/77
f 68/75/68 38/43/38 77/87/77
f 37/42/37 38/43/38 68/75/68
f 70/77/70 37/42/37 68/75/68
f 36/40/36 37/42/37 70/77/70
f 71/78/71 36/40/36 70/77/70
f 61/68/61 76/86/76 71/78/71
f 76/86/76 36/40/36 71/78/71
f 71/78/71 44/51/44 61/68/61
f 4/4/4 13/88/13 9/89/9
f 5/5/5 4/4/4 9/89/9
f 5/5/5 9/89/9 78/90/78
f 31/91/31 17/92/17 79/93/79
f 8/8/8 31/91/31 79/93/79
f 79/93/79 17/92/17 78/94/78
f 79/93/79 11/11/11 12/12/12
f 8/8/8 79/93/79 12/12/12
f 54/80/54 69/76/69 80/95/80
f 69/76/69 68/75/68 80/95/80
f 68/75/68 77/87/77 80/95/80
f 25/27/25 24/26/24 81/96/81
f 77/87/77 25/46/25 81/97/81
f 81/97/81 54/80/54 80/95/80
f 77/87/77 81/97/81 80/95/80
f 54/61/54 81/96/81 47/54/47
f 24/26/24 62/69/62 82/98/82
f 62/69/62 47/54/47 82/98/82
f 47/54/47 81/96/81 82/98/82
f 81/96/81 24/26/24 82/98/82
f 79/93/79 78/94/78 9/9/9
f 11/11/11 79/93/79 9/9/9
f 78/90/78 17/99/17 3/3/3
f 5/5/5 78/90/78 3/3/3
