# Blender v2.72 (sub 0) OBJ File: ''
# www.blender.org
mtllib box1.mtl
o Cube.002_Cube
v 0.582143 0.461069 0.500000
v 0.582143 0.461069 0.550000
v 0.582143 -0.538931 0.550000
v 0.500000 -0.538931 0.550000
v 0.582143 -0.538931 0.500000
v 0.500000 -0.538931 0.500000
v 0.500000 0.461069 0.550000
v -0.582143 -0.538931 0.550000
v -0.582143 0.461069 0.550000
v -0.582143 0.461069 0.500000
v -0.500000 -0.538931 0.550000
v -0.582143 -0.538931 0.500000
v -0.500000 0.461069 0.550000
v -0.500000 -0.538931 0.500000
v 0.582143 -0.538931 -0.550000
v 0.582143 0.461069 -0.550000
v 0.582143 0.461069 -0.500000
v 0.500000 -0.538931 -0.550000
v 0.582143 -0.538931 -0.500000
v 0.500000 0.461069 -0.550000
v 0.500000 -0.538931 -0.500000
v -0.582143 -0.538931 -0.500000
v -0.582143 0.461069 -0.500000
v -0.582143 0.461069 -0.550000
v -0.500000 -0.538931 -0.550000
v -0.582143 -0.538931 -0.550000
v -0.500000 -0.538931 -0.500000
v -0.500000 0.461069 -0.550000
v 0.500000 0.461069 0.500000
v -0.500000 0.461069 0.500000
v 0.500000 0.461069 -0.500000
v -0.500000 0.461069 -0.500000
v 1.000000 -0.538931 0.500000
v 1.000000 0.461069 0.500000
v 1.000000 -0.538931 0.000000
v 0.000000 -0.538931 0.500000
v 0.500000 -0.538931 0.000000
v 0.582143 0.508739 0.500000
v 0.582143 0.508739 0.550000
v 1.000000 0.508739 0.550000
v 0.582143 -0.538931 0.000000
v 0.500000 0.508739 0.500000
v 0.000000 0.508739 0.500000
v 0.000000 0.508739 0.550000
v 0.000000 0.508739 0.000000
v 0.500000 0.508739 0.000000
v 0.582143 0.508739 0.000000
v 1.000000 0.508739 0.500000
v 0.500000 0.508739 0.550000
v 1.000000 0.461069 0.550000
v 0.000000 0.461069 0.550000
v 0.000000 0.461069 0.500000
v -1.000000 0.461069 0.500000
v -1.000000 -0.538931 0.500000
v -1.000000 -0.538931 0.000000
v -0.500000 -0.538931 0.000000
v -1.000000 0.508739 0.550000
v -0.582143 0.508739 0.550000
v -0.582143 0.508739 0.500000
v -0.582143 -0.538931 0.000000
v -0.500000 0.508739 0.550000
v -0.500000 0.508739 0.500000
v -0.500000 0.508739 0.000000
v -1.000000 0.508739 0.500000
v -0.582143 0.508739 0.000000
v -1.000000 0.461069 0.550000
v 1.000000 0.461069 0.000000
v 1.000000 0.508739 0.000000
v -1.000000 0.461069 0.000000
v -1.000000 0.508739 0.000000
v 1.000000 0.461069 -0.500000
v 1.000000 -0.538931 -0.500000
v 0.000000 -0.538931 -0.500000
v 1.000000 0.508739 -0.550000
v 0.582143 0.508739 -0.550000
v 0.582143 0.508739 -0.500000
v 0.500000 0.508739 -0.550000
v 0.000000 0.508739 -0.550000
v 0.000000 0.508739 -0.500000
v 0.500000 0.508739 -0.500000
v 1.000000 0.508739 -0.500000
v 1.000000 0.461069 -0.550000
v 0.000000 0.461069 -0.550000
v -1.000000 -0.538931 -0.500000
v -1.000000 0.461069 -0.500000
v -1.000000 0.508739 -0.500000
v -0.582143 0.508739 -0.500000
v -0.582143 0.508739 -0.550000
v -0.500000 0.508739 -0.500000
v -0.500000 0.508739 -0.550000
v -1.000000 0.508739 -0.550000
v -1.000000 0.461069 -0.550000
v 0.000000 0.461069 -0.500000
v 0.000000 -0.538931 0.000000
vt 0.382126 0.414018
vt 0.476965 0.414018
vt 0.476965 0.640986
vt 0.739883 0.204218
vt 0.739883 0.034827
vt 0.598320 0.034827
vt 0.250000 0.414018
vt 0.363483 0.414018
vt 0.363483 0.640983
vt 0.570492 0.204218
vt 0.570492 0.034827
vt 0.401100 0.034827
vt 0.598320 0.017887
vt 0.739883 0.017887
vt 0.598320 0.204218
vt 0.401100 0.017887
vt 0.401100 0.204218
vt 0.570492 0.017887
vt 0.598331 0.001736
vt 0.756035 0.373610
vt 0.756035 0.390549
vt 0.739885 0.390549
vt 0.401111 0.001736
vt 0.570503 0.001736
vt 0.739894 0.001736
vt 0.023035 0.640983
vt 0.023035 0.414018
vt 0.117874 0.414018
vt 0.203880 0.034827
vt 0.062317 0.034827
vt 0.062317 0.204218
vt 0.136518 0.640983
vt 0.136518 0.414018
vt 0.231709 0.034827
vt 0.231709 0.204218
vt 0.062317 0.017887
vt 0.203880 0.017887
vt 0.203880 0.204218
vt 0.231709 0.017887
vt 0.203891 0.001736
vt 0.046169 0.390549
vt 0.062319 0.390549
vt 0.062319 0.373610
vt 0.231720 0.001736
vt 0.062328 0.001736
vt 0.495146 0.414014
vt 0.664537 0.414014
vt 0.664537 0.640986
vt 0.756035 0.204218
vt 0.046169 0.204219
vt 0.598320 0.373610
vt 0.739885 0.373610
vt 0.401100 0.373610
vt 0.570492 0.373610
vt 0.598320 0.390549
vt 0.570492 0.390549
vt 0.401100 0.390549
vt 0.570491 0.406700
vt 0.598319 0.406700
vt 0.756035 0.017887
vt 0.756035 0.034826
vt 0.401099 0.406700
vt 0.739882 0.406700
vt 0.203880 0.373610
vt 0.231709 0.373610
vt 0.203880 0.390549
vt 0.231709 0.390549
vt 0.203879 0.406700
vt 0.231708 0.406700
vt 0.046169 0.017888
vt 0.062316 0.406700
vt 0.833929 0.414014
vt 0.382126 0.640983
vt 0.250000 0.640983
vt 0.117874 0.640983
vt 0.046169 0.373610
vt 0.495146 0.640986
vt 0.046169 0.034827
vt 0.833929 0.640986
vt 0.182483 0.999927
vt 0.132490 0.999927
vt 0.132490 0.000073
vt 0.000073 0.000073
vt 0.082204 0.000073
vt 0.082204 0.999927
vt 0.282094 0.001896
vt 0.282094 0.082565
vt 0.199819 0.082565
vt 0.082351 0.000073
vt 0.132344 0.000073
vt 0.132343 0.999927
vt 0.182483 0.000073
vt 0.000074 0.999927
vt 0.199819 0.001896
vt 0.082351 0.999927
vn 0.000000 -0.000000 1.000000
vn 0.000000 -1.000000 -0.000000
vn 0.000000 1.000000 0.000000
vn 1.000000 0.000000 0.000000
vn -1.000000 0.000000 0.000000
vn 0.000000 0.000000 -1.000000
usemtl Material.005
s off
f 5/1/1 33/2/1 34/3/1
f 35/4/2 33/5/2 5/6/2
f 36/7/1 6/8/1 29/9/1
f 37/10/2 6/11/2 36/12/2
f 38/6/3 39/13/3 40/14/3
f 41/15/2 5/6/2 6/11/2
f 42/11/3 43/12/3 44/16/3
f 45/17/3 43/12/3 42/11/3
f 46/10/3 42/11/3 38/6/3
f 47/15/3 38/6/3 48/5/3
f 42/11/3 49/18/3 39/13/3
f 2/19/1 39/13/1 49/18/1
f 48/20/4 40/21/4 50/22/4
f 51/23/1 7/24/1 49/18/1
f 34/5/2 50/14/2 2/13/2
f 52/12/2 29/11/2 7/18/2
f 50/25/1 40/14/1 39/13/1
f 53/26/1 54/27/1 12/28/1
f 12/29/2 54/30/2 55/31/2
f 30/32/1 14/33/1 36/7/1
f 36/12/2 14/34/2 56/35/2
f 57/36/3 58/37/3 59/29/3
f 14/34/2 12/29/2 60/38/2
f 61/39/3 44/16/3 43/12/3
f 62/34/3 43/12/3 45/17/3
f 59/29/3 62/34/3 63/35/3
f 64/30/3 59/29/3 65/38/3
f 58/37/3 61/39/3 62/34/3
f 61/39/1 58/37/1 9/40/1
f 66/41/5 57/42/5 64/43/5
f 44/16/1 61/39/1 13/44/1
f 9/37/2 66/36/2 53/30/2
f 51/16/2 13/39/2 30/34/2
f 58/37/1 57/36/1 66/45/1
f 33/46/4 35/47/4 67/48/4
f 67/4/4 68/49/4 48/20/4
f 69/48/5 55/47/5 54/46/5
f 64/43/5 70/31/5 69/50/5
f 71/3/6 72/2/6 19/1/6
f 19/51/2 72/52/2 35/4/2
f 31/9/6 21/8/6 73/7/6
f 73/53/2 21/54/2 37/10/2
f 74/22/3 75/55/3 76/51/3
f 21/54/2 19/51/2 41/15/2
f 77/56/3 78/57/3 79/53/3
f 80/54/3 79/53/3 45/17/3
f 76/51/3 80/54/3 46/10/3
f 81/52/3 76/51/3 47/15/3
f 75/55/3 77/56/3 80/54/3
f 77/58/6 75/59/6 16/55/6
f 82/14/4 74/60/4 81/61/4
f 78/62/6 77/58/6 20/56/6
f 16/55/2 82/22/2 71/52/2
f 83/57/2 20/56/2 31/54/2
f 75/59/6 74/63/6 82/22/6
f 22/28/6 84/27/6 85/26/6
f 55/31/2 84/43/2 22/64/2
f 73/7/6 27/33/6 32/32/6
f 56/35/2 27/65/2 73/53/2
f 86/43/3 87/64/3 88/66/3
f 60/38/2 22/64/2 27/65/2
f 89/65/3 79/53/3 78/57/3
f 45/17/3 79/53/3 89/65/3
f 63/35/3 89/65/3 87/64/3
f 65/38/3 87/64/3 86/43/3
f 89/65/3 90/67/3 88/66/3
f 24/66/6 88/68/6 90/69/6
f 86/30/5 91/36/5 92/70/5
f 83/57/6 28/67/6 90/69/6
f 23/64/2 85/43/2 92/42/2
f 93/53/2 32/65/2 28/67/2
f 92/42/6 91/71/6 88/68/6
f 67/48/4 35/47/4 72/72/4
f 81/61/4 68/49/4 67/4/4
f 84/72/5 55/47/5 69/48/5
f 69/50/5 70/31/5 86/30/5
f 1/73/1 5/1/1 34/3/1
f 41/15/2 35/4/2 5/6/2
f 52/74/1 36/7/1 29/9/1
f 94/17/2 37/10/2 36/12/2
f 48/5/3 38/6/3 40/14/3
f 37/10/2 41/15/2 6/11/2
f 49/18/3 42/11/3 44/16/3
f 46/10/3 45/17/3 42/11/3
f 47/15/3 46/10/3 38/6/3
f 68/4/3 47/15/3 48/5/3
f 38/6/3 42/11/3 39/13/3
f 7/24/1 2/19/1 49/18/1
f 34/52/4 48/20/4 50/22/4
f 44/16/1 51/23/1 49/18/1
f 1/6/2 34/5/2 2/13/2
f 51/16/2 52/12/2 7/18/2
f 2/19/1 50/25/1 39/13/1
f 10/75/1 53/26/1 12/28/1
f 60/38/2 12/29/2 55/31/2
f 52/74/1 30/32/1 36/7/1
f 94/17/2 36/12/2 56/35/2
f 64/30/3 57/36/3 59/29/3
f 56/35/2 14/34/2 60/38/2
f 62/34/3 61/39/3 43/12/3
f 63/35/3 62/34/3 45/17/3
f 65/38/3 59/29/3 63/35/3
f 70/31/3 64/30/3 65/38/3
f 59/29/3 58/37/3 62/34/3
f 13/44/1 61/39/1 9/40/1
f 53/76/5 66/41/5 64/43/5
f 51/23/1 44/16/1 13/44/1
f 10/29/2 9/37/2 53/30/2
f 52/12/2 51/16/2 30/34/2
f 9/40/1 58/37/1 66/45/1
f 34/77/4 33/46/4 67/48/4
f 34/52/4 67/4/4 48/20/4
f 53/77/5 69/48/5 54/46/5
f 53/76/5 64/43/5 69/50/5
f 17/73/6 71/3/6 19/1/6
f 41/15/2 19/51/2 35/4/2
f 93/74/6 31/9/6 73/7/6
f 94/17/2 73/53/2 37/10/2
f 81/52/3 74/22/3 76/51/3
f 37/10/2 21/54/2 41/15/2
f 80/54/3 77/56/3 79/53/3
f 46/10/3 80/54/3 45/17/3
f 47/15/3 76/51/3 46/10/3
f 68/4/3 81/52/3 47/15/3
f 76/51/3 75/55/3 80/54/3
f 20/56/6 77/58/6 16/55/6
f 71/5/4 82/14/4 81/61/4
f 83/57/6 78/62/6 20/56/6
f 17/51/2 16/55/2 71/52/2
f 93/53/2 83/57/2 31/54/2
f 16/55/6 75/59/6 82/22/6
f 23/75/6 22/28/6 85/26/6
f 60/38/2 55/31/2 22/64/2
f 93/74/6 73/7/6 32/32/6
f 94/17/2 56/35/2 73/53/2
f 91/42/3 86/43/3 88/66/3
f 56/35/2 60/38/2 27/65/2
f 90/67/3 89/65/3 78/57/3
f 63/35/3 45/17/3 89/65/3
f 65/38/3 63/35/3 87/64/3
f 70/31/3 65/38/3 86/43/3
f 87/64/3 89/65/3 88/66/3
f 28/67/6 24/66/6 90/69/6
f 85/78/5 86/30/5 92/70/5
f 78/62/6 83/57/6 90/69/6
f 24/66/2 23/64/2 92/42/2
f 83/57/2 93/53/2 28/67/2
f 24/66/6 92/42/6 88/68/6
f 71/79/4 67/48/4 72/72/4
f 71/5/4 81/61/4 67/4/4
f 85/79/5 84/72/5 69/48/5
f 85/78/5 69/50/5 86/30/5
usemtl Material.003
f 1/80/4 2/81/4 3/82/4
f 4/83/1 3/84/1 2/85/1
f 5/86/2 3/87/2 4/88/2
f 6/89/5 4/90/5 7/91/5
f 8/92/5 9/80/5 10/81/5
f 9/93/1 8/83/1 11/84/1
f 11/87/2 8/88/2 12/94/2
f 13/95/4 11/89/4 14/90/4
f 15/92/4 16/80/4 17/81/4
f 16/93/6 15/83/6 18/84/6
f 18/94/2 15/86/2 19/87/2
f 20/95/5 18/89/5 21/90/5
f 22/90/5 23/91/5 24/95/5
f 25/83/6 26/84/6 24/85/6
f 22/88/2 26/94/2 25/86/2
f 27/82/4 25/92/4 28/80/4
f 5/92/4 1/80/4 3/82/4
f 7/93/1 4/83/1 2/85/1
f 6/94/2 5/86/2 4/88/2
f 29/95/5 6/89/5 7/91/5
f 12/82/5 8/92/5 10/81/5
f 13/85/1 9/93/1 11/84/1
f 14/86/2 11/87/2 12/94/2
f 30/91/4 13/95/4 14/90/4
f 19/82/4 15/92/4 17/81/4
f 20/85/6 16/93/6 18/84/6
f 21/88/2 18/94/2 19/87/2
f 31/91/5 20/95/5 21/90/5
f 26/89/5 22/90/5 24/95/5
f 28/93/6 25/83/6 24/85/6
f 27/87/2 22/88/2 25/86/2
f 32/81/4 27/82/4 28/80/4
