# Blender v2.72 (sub 0) OBJ File: 'untitled.blend'
# www.blender.org
mtllib TopRightLeg.mtl
o rdmobj00.001
v -0.326313 -1.025523 -0.094293
v -0.328829 -0.998558 -0.254634
v -0.082976 -1.046427 0.297232
v -0.081852 -0.962887 0.323075
v -0.197897 -1.040565 0.204355
v -0.222572 -0.921142 0.235248
v -0.303256 -0.904414 0.089348
v -0.198197 -0.954639 0.223649
v -0.283264 -0.942704 0.063553
v -0.354569 -0.883576 -0.073831
v -0.322493 -0.926108 -0.096078
v -0.288200 -1.030053 0.063665
v -0.419160 -0.185946 0.034374
v -0.354960 -0.174636 0.212214
v -0.419004 0.070288 0.070043
v 0.376678 -0.875041 -0.317048
v 0.378810 -0.898185 -0.196752
v 0.344310 -0.990623 -0.317667
v 0.409816 -1.011233 -0.209974
v 0.259684 -0.851652 -0.420253
v 0.250661 -0.954992 -0.415355
v -0.256912 -0.957545 -0.382552
v -0.337181 -0.904028 -0.261299
v -0.390119 -0.730173 -0.093375
v -0.128923 -0.938855 -0.471850
v 0.136136 -0.938040 -0.487048
v 0.003566 -0.934392 -0.502286
v 0.012210 -0.833752 -0.541210
v 0.148553 -0.834478 -0.498930
v 0.024097 -1.049617 0.346442
v 0.138232 -1.060033 0.325736
v 0.029079 -0.964291 0.364222
v 0.167907 -0.946666 0.324642
v 0.256535 -1.050168 0.167456
v 0.274198 -0.932607 0.174186
v 0.340207 -0.918371 -0.014488
v 0.333489 -1.036526 -0.025439
v -0.445300 -0.194374 -0.162397
v -0.385295 0.089600 -0.178530
v -0.408442 0.238049 0.085840
v -0.408654 0.243322 -0.176070
v -0.401078 -0.469425 -0.212760
v -0.409104 -0.461400 -0.049377
v 0.380559 -0.723619 -0.148282
v 0.354790 -0.705388 -0.281364
v 0.283294 -0.687727 -0.406932
v 0.319797 -0.520669 -0.371653
v 0.376614 -0.540647 -0.220481
v 0.159962 -0.677384 -0.482330
v 0.193704 -0.507492 -0.464372
v -0.399803 -0.721478 -0.059238
v -0.418425 -0.486827 -0.017685
v -0.378372 -0.741657 0.106049
v -0.103353 -0.923532 0.334792
v -0.368778 -0.513226 0.123595
v -0.292028 -0.752321 0.278411
v -0.138243 -0.759569 0.370845
v -0.185341 -0.516446 0.449578
v -0.009254 -0.508345 0.520973
v -0.016960 -0.311696 0.617738
v 0.069753 -0.311758 0.614976
v -0.026320 -0.241590 0.619792
v -0.197153 -0.311103 0.527302
v -0.183792 -0.501013 0.460859
v -0.313784 -0.496719 0.300360
v -0.312837 -0.303329 0.350865
v -0.387870 -0.487602 0.133145
v -0.385564 -0.289667 0.183632
v -0.178352 -0.214610 0.550022
v -0.272839 -0.186735 0.392731
v -0.376570 0.058753 0.257873
v -0.437788 -0.282195 0.050323
v -0.379622 0.233587 0.275680
v -0.264114 0.029623 0.429606
v -0.153174 -0.009954 0.587661
v -0.023349 -0.078570 0.667632
v 0.131125 -0.163275 0.633098
v -0.142596 0.200090 0.613345
v -0.290184 0.248949 0.461705
v 0.025238 0.104955 0.710936
v 0.110823 -0.491040 0.474215
v 0.113371 -0.474743 0.518435
v -0.009620 -0.492477 0.546648
v 0.135997 -0.312334 0.562031
v 0.172355 -0.496246 0.437957
v 0.128369 -0.726583 0.437082
v 0.026193 -0.747149 0.437200
v 0.300535 -0.738456 0.218548
v 0.309859 -0.519178 0.301849
v 0.176831 -0.727468 0.392194
v 0.132966 -0.902617 0.414154
v 0.038880 -0.910972 0.383659
v 0.289967 -0.363964 0.407571
v 0.175078 -0.047704 0.684528
v 0.276634 -0.249947 0.511596
v 0.338554 -0.737772 0.029067
v 0.389011 -0.557198 -0.066781
v 0.362616 -0.554720 0.116472
v -0.035079 0.211938 -0.630190
v 0.195602 0.200349 -0.676471
v -0.024153 0.116565 -0.627748
v -0.147889 -0.279554 -0.549292
v -0.125179 -0.068060 -0.522966
v 0.077558 -0.156701 -0.541839
v 0.057347 -0.331462 -0.561828
v -0.338399 -0.235544 -0.403644
v -0.269899 -0.005180 -0.402711
v -0.149554 -0.489993 -0.519594
v -0.316053 -0.478179 -0.406489
v -0.259999 0.103298 -0.461884
v -0.255441 0.213872 -0.488091
v 0.310147 -0.168853 0.559924
v 0.015518 -0.682700 -0.537078
v 0.033354 -0.498324 -0.519996
v -0.405071 -0.726484 -0.271302
v -0.259260 -0.856576 -0.430891
v -0.276874 -0.705174 -0.411497
v -0.144255 -0.688637 -0.528710
v -0.136217 -0.835471 -0.527688
v 0.441578 -0.241655 0.100264
v 0.386176 -0.239933 0.321334
v 0.368521 -0.310421 0.283825
v 0.425617 -0.282630 0.095112
v 0.154972 -0.034581 -0.614483
v 0.297853 0.052290 -0.615039
v 0.370158 -0.413993 0.215564
v 0.425727 -0.364721 0.072794
v 0.417296 -0.446124 0.011649
v -0.443076 -0.458744 -0.017319
v -0.304495 -0.514498 0.291682
v 0.401911 -0.431238 -0.165846
v 0.415384 -0.349132 -0.121712
v 0.438620 -0.275109 -0.111571
v 0.451827 -0.237724 -0.111255
v 0.415805 -0.109626 -0.511226
v 0.350969 -0.169490 -0.507211
v 0.293989 -0.264642 -0.488053
v 0.453618 -0.209846 -0.322412
v 0.428868 -0.250596 -0.322623
v 0.398775 -0.328845 -0.324204
v 0.243567 -0.378676 -0.479799
v 0.363675 -0.414800 -0.348903
vt 0.894043 0.488037
vt 0.894531 0.478760
vt 0.873047 0.488770
vt 0.872070 0.475342
vt 0.851563 0.475830
vt 0.873535 0.479736
vt 0.850098 0.480957
vt 0.832031 0.475098
vt 0.829590 0.489502
vt 0.828613 0.480713
vt 0.807617 0.488037
vt 0.850586 0.489258
vt 0.828125 0.405029
vt 0.845215 0.401611
vt 0.826660 0.383057
vt 0.666504 0.478760
vt 0.646484 0.479004
vt 0.666992 0.488770
vt 0.691895 0.477539
vt 0.690918 0.486328
vt 0.807129 0.479004
vt 0.784668 0.485352
vt 0.828125 0.457520
vt 0.736816 0.485107
vt 0.736816 0.475830
vt 0.713867 0.485352
vt 0.714355 0.476318
vt 0.911621 0.477783
vt 0.911133 0.486572
vt 0.931641 0.476318
vt 0.927246 0.487061
vt 0.954102 0.477539
vt 0.951660 0.489502
vt 0.975586 0.478760
vt 0.974609 0.490723
vt 0.994141 0.478760
vt 0.994141 0.489502
vt 0.809570 0.407715
vt 0.803223 0.383789
vt 0.826660 0.369385
vt 0.803711 0.370850
vt 0.808594 0.433594
vt 0.825684 0.430664
vt 0.646484 0.463867
vt 0.668457 0.462891
vt 0.691406 0.462158
vt 0.689941 0.444336
vt 0.666992 0.446045
vt 0.714355 0.461914
vt 0.712891 0.443359
vt 0.831543 0.456299
vt 0.830566 0.432861
vt 0.848633 0.456055
vt 0.892090 0.474609
vt 0.846680 0.433838
vt 0.868652 0.454346
vt 0.889160 0.454834
vt 0.885742 0.427490
vt 0.907227 0.424316
vt 0.903809 0.403809
vt 0.912109 0.403320
vt 0.900391 0.397705
vt 0.882813 0.407227
vt 0.885254 0.425537
vt 0.864258 0.428223
vt 0.862305 0.410156
vt 0.846191 0.430420
vt 0.844727 0.411865
vt 0.881836 0.398926
vt 0.863770 0.399902
vt 0.843262 0.381348
vt 0.831543 0.413330
vt 0.842285 0.367920
vt 0.861328 0.381592
vt 0.880371 0.381836
vt 0.897949 0.383545
vt 0.915527 0.387939
vt 0.878418 0.364746
vt 0.858887 0.364014
vt 0.899414 0.367920
vt 0.921875 0.423584
vt 0.919434 0.419434
vt 0.906250 0.421387
vt 0.919434 0.402344
vt 0.929688 0.423828
vt 0.923828 0.449707
vt 0.911133 0.451904
vt 0.956543 0.455322
vt 0.953125 0.427979
vt 0.931641 0.450195
vt 0.923340 0.468506
vt 0.912598 0.471924
vt 0.943848 0.408447
vt 0.916504 0.376953
vt 0.936523 0.394531
vt 0.994141 0.458008
vt 0.977051 0.457764
vt 0.994141 0.437744
vt 0.975098 0.435059
vt 0.746582 0.374512
vt 0.725098 0.374756
vt 0.745605 0.382080
vt 0.759277 0.419189
vt 0.758301 0.399414
vt 0.735840 0.407471
vt 0.736328 0.424561
vt 0.784180 0.414063
vt 0.778320 0.393555
vt 0.761719 0.440430
vt 0.785645 0.437012
vt 0.773438 0.383789
vt 0.771484 0.374512
vt 0.936523 0.385010
vt 0.738770 0.462646
vt 0.736816 0.442627
vt 0.646484 0.489746
vt 0.808594 0.458740
vt 0.780762 0.476074
vt 0.786133 0.461670
vt 0.763184 0.462158
vt 0.759277 0.485107
vt 0.759277 0.474854
vt 0.963379 0.394531
vt 0.964844 0.403809
vt 0.994141 0.405762
vt 0.994141 0.400635
vt 0.729004 0.394287
vt 0.714355 0.385742
vt 0.969727 0.417236
vt 0.994141 0.414307
vt 0.994141 0.424072
vt 0.829590 0.429443
vt 0.865234 0.430664
vt 0.664551 0.435547
vt 0.662109 0.427734
vt 0.646484 0.436523
vt 0.646484 0.429932
vt 0.662109 0.420654
vt 0.646484 0.423584
vt 0.662109 0.416504
vt 0.646484 0.419434
vt 0.699219 0.398682
vt 0.704590 0.405518
vt 0.708008 0.416260
vt 0.681152 0.409180
vt 0.682617 0.414307
vt 0.684082 0.423584
vt 0.711426 0.429199
vt 0.687012 0.432861
vt 0.646484 0.446289
vn -0.527100 -0.244700 0.813800
vn -0.458700 -0.334500 0.823200
vn -0.776900 -0.123400 0.617400
vn -0.673200 -0.509000 0.536200
vn -0.809300 -0.504800 0.300400
vn -0.715600 -0.397700 0.574200
vn -0.896500 -0.299300 0.326800
vn -0.887700 -0.419300 -0.190200
vn -0.989200 0.042800 0.140200
vn -0.970600 -0.233600 0.058100
vn -0.979600 -0.074400 -0.186600
vn -0.916400 0.052300 0.396800
vn -0.985400 0.069200 0.155100
vn -0.932300 0.013200 0.361400
vn -0.996600 -0.013200 0.081500
vn 0.909500 -0.010700 -0.415600
vn 0.997000 0.076300 0.007200
vn 0.856900 -0.093100 -0.507000
vn 0.637500 -0.032700 -0.769700
vn 0.598800 -0.110500 -0.793200
vn -0.943100 -0.242800 -0.227200
vn -0.747300 -0.277300 -0.603800
vn -0.979500 -0.175300 -0.099000
vn -0.020600 -0.390400 -0.920400
vn 0.084900 -0.149100 -0.985100
vn 0.383600 -0.186700 -0.904400
vn 0.435000 -0.057200 -0.898600
vn -0.056800 -0.247700 0.967200
vn -0.115200 -0.217700 0.969200
vn 0.661100 -0.291200 0.691500
vn 0.510600 -0.163400 0.844100
vn 0.892300 -0.169000 0.418500
vn 0.874500 -0.154700 0.459700
vn 0.951800 -0.053100 0.301900
vn 0.926100 -0.086700 0.367200
vn 0.973600 0.214600 -0.078300
vn -0.986000 0.065900 -0.152800
vn -0.958300 -0.024500 -0.284500
vn -0.994400 0.033200 0.100300
vn -0.964800 -0.092200 -0.246200
vn -0.976100 -0.045200 -0.212700
vn -0.954800 -0.077500 -0.286900
vn 0.998700 -0.047900 0.015200
vn 0.934400 0.013200 -0.355800
vn 0.719600 -0.032400 -0.693600
vn 0.784000 -0.130400 -0.606800
vn 0.971700 -0.097300 -0.214900
vn 0.433300 0.039900 -0.900300
vn 0.447100 -0.131800 -0.884700
vn -0.989500 -0.133500 -0.055200
vn -0.928800 -0.356700 -0.099800
vn -0.938500 -0.191000 0.287600
vn -0.462900 -0.390300 0.795800
vn -0.894100 -0.347700 0.282100
vn -0.751300 -0.284600 0.595400
vn -0.433900 -0.335100 0.836300
vn -0.557800 -0.369200 0.743200
vn -0.009200 -0.648100 0.761500
vn -0.195600 -0.205500 0.958900
vn 0.402600 0.082900 0.911600
vn -0.182200 -0.175300 0.967500
vn -0.671100 -0.155200 0.724900
vn -0.560800 -0.390800 0.729900
vn -0.811400 -0.349900 0.468200
vn -0.874000 -0.015100 0.485700
vn -0.871900 -0.386500 0.300800
vn -0.925800 0.040900 0.375700
vn -0.681500 -0.064800 0.728900
vn -0.865800 0.015500 0.500100
vn -0.929500 -0.076200 0.360700
vn -0.995200 0.096700 0.011700
vn -0.938100 -0.081800 0.336400
vn -0.827700 -0.088400 0.554200
vn -0.698000 -0.052800 0.714100
vn -0.291600 -0.200500 0.935300
vn 0.192000 -0.422700 0.885600
vn -0.684300 -0.098100 0.722600
vn -0.816500 -0.177500 0.549500
vn -0.366100 -0.127300 0.921800
vn 0.342900 -0.637000 0.690300
vn 0.463500 -0.616400 0.636500
vn -0.053700 -0.632400 0.772800
vn 0.512600 -0.314000 0.799100
vn 0.610200 -0.287700 0.738100
vn 0.403600 -0.161400 0.900500
vn -0.162200 -0.293600 0.942000
vn 0.895300 -0.210500 0.392600
vn 0.832700 -0.226500 0.505200
vn 0.739000 -0.159000 0.654600
vn 0.345800 -0.519900 0.781100
vn -0.146300 -0.425000 0.893200
vn 0.745000 -0.346700 0.569800
vn 0.090200 -0.380300 0.920500
vn 0.592200 -0.516800 0.618200
vn 0.966400 -0.138900 0.216200
vn 0.984500 -0.172500 0.030700
vn 0.947400 -0.226400 0.225900
vn -0.403200 -0.081100 -0.911500
vn -0.039200 -0.216900 -0.975400
vn -0.349700 -0.181400 -0.919100
vn -0.338900 0.021500 -0.940500
vn -0.431200 -0.072200 -0.899300
vn -0.032100 -0.182100 -0.982800
vn 0.133600 -0.086800 -0.987200
vn -0.787100 0.077400 -0.611900
vn -0.801800 -0.010100 -0.597500
vn -0.337000 -0.071300 -0.938700
vn -0.754500 -0.053200 -0.654100
vn -0.760800 -0.160200 -0.628900
vn -0.726800 -0.129900 -0.674500
vn 0.456600 -0.567800 0.685000
vn 0.146900 0.050400 -0.987900
vn 0.162600 -0.099700 -0.981600
vn -0.948900 -0.149800 -0.277800
vn -0.685300 -0.210500 -0.697100
vn -0.682500 -0.036300 -0.729900
vn -0.383300 0.007900 -0.923600
vn -0.365900 -0.450300 -0.814400
vn -0.359100 -0.215400 -0.908100
vn 0.833200 -0.419200 0.360600
vn 0.888000 -0.299400 0.349000
vn 0.962200 -0.219600 0.160800
vn 0.917000 -0.374500 0.137100
vn -0.011400 -0.363400 -0.931500
vn 0.204500 -0.330600 -0.921300
vn 0.916700 -0.224800 0.330200
vn 0.977000 -0.148000 0.153400
vn 0.977500 -0.201300 0.062600
vn -0.930700 -0.213600 -0.296800
vn -0.822700 -0.343600 0.452700
vn 0.980200 -0.150600 -0.128300
vn 0.976600 -0.195300 -0.089700
vn 0.953900 -0.297200 -0.042600
vn 0.937100 -0.348400 -0.019600
vn 0.434500 -0.519900 -0.735500
vn 0.456300 -0.480800 -0.748700
vn 0.500800 -0.348800 -0.792100
vn 0.793100 -0.519500 -0.317800
vn 0.845300 -0.425800 -0.322600
vn 0.880800 -0.282400 -0.379900
vn 0.513700 -0.252400 -0.820000
vn 0.844200 -0.194400 -0.499500
usemtl mi_obeseMale_cloth
s 1
f 3/1/1 4/2/2 5/3/3
f 6/4/4 7/5/5 8/6/6
f 5/3/3 4/2/2 8/6/6
f 8/6/6 9/7/7 5/3/3
f 7/5/5 10/8/8 9/7/7
f 1/9/9 9/7/7 11/10/10
f 1/9/9 11/10/10 2/11/11
f 12/12/12 5/3/3 9/7/7
f 9/7/7 1/9/9 12/12/12
f 13/13/13 14/14/14 15/15/15
f 16/16/16 17/17/17 18/18/18
f 20/19/19 16/16/16 21/20/20
f 2/11/11 23/21/21 22/22/22
f 23/21/21 2/11/11 11/10/10
f 11/10/10 24/23/23 23/21/21
f 10/8/8 24/23/23 11/10/10
f 27/24/24 28/25/25 26/26/26
f 29/27/27 20/19/19 26/26/26
f 32/28/28 4/2/2 30/29/29
f 33/30/30 32/28/28 31/31/31
f 35/32/32 33/30/30 34/33/33
f 36/34/34 35/32/32 34/33/33
f 36/34/34 34/33/33 37/35/35
f 17/36/17 36/34/34 19/37/36
f 38/38/37 13/13/13 39/39/38
f 13/13/13 15/15/15 39/39/38
f 15/15/15 40/40/39 41/41/40
f 39/39/38 15/15/15 41/41/40
f 42/42/41 43/43/42 38/38/37
f 44/44/43 17/17/17 45/45/44
f 46/46/45 47/47/46 45/45/44
f 45/45/44 48/48/47 44/44/43
f 49/49/48 50/50/49 46/46/45
f 11/10/10 9/7/7 10/8/8
f 9/7/7 8/6/6 7/5/5
f 3/1/1 30/29/29 4/2/2
f 51/51/50 52/52/51 24/23/23
f 24/23/23 10/8/8 51/51/50
f 51/51/50 10/8/8 53/53/52
f 7/5/5 53/53/52 10/8/8
f 7/5/5 6/4/4 53/53/52
f 8/6/6 54/54/53 6/4/4
f 54/54/53 8/6/6 4/2/2
f 53/53/52 55/55/54 51/51/50
f 53/53/52 6/4/4 56/56/55
f 57/57/56 56/56/55 6/4/4
f 57/57/56 58/58/57 56/56/55
f 58/58/57 57/57/56 59/59/58
f 60/60/59 61/61/60 62/62/61
f 60/60/59 62/62/61 63/63/62
f 64/64/63 60/60/59 63/63/62
f 65/65/64 64/64/63 66/66/65
f 67/67/66 65/65/64 68/68/67
f 63/63/62 62/62/61 69/69/68
f 69/69/68 70/70/69 63/63/62
f 66/66/65 63/63/62 70/70/69
f 68/68/67 66/66/65 14/14/14
f 70/70/69 14/14/14 66/66/65
f 14/14/14 70/70/69 71/71/70
f 15/15/15 71/71/70 40/40/39
f 71/71/70 15/15/15 14/14/14
f 14/14/14 13/13/13 68/68/67
f 72/72/71 68/68/67 13/13/13
f 73/73/72 40/40/39 71/71/70
f 71/71/70 74/74/73 73/73/72
f 74/74/73 71/71/70 70/70/69
f 74/74/73 70/70/69 75/75/74
f 69/69/68 75/75/74 70/70/69
f 76/76/75 75/75/74 69/69/68
f 62/62/61 76/76/75 69/69/68
f 62/62/61 77/77/76 76/76/75
f 75/75/74 78/78/77 74/74/73
f 79/79/78 74/74/73 78/78/77
f 74/74/73 79/79/78 73/73/72
f 78/78/77 75/75/74 80/80/79
f 81/81/80 82/82/81 59/59/58
f 59/59/58 82/82/81 83/83/82
f 61/61/60 83/83/82 82/82/81
f 61/61/60 60/60/59 83/83/82
f 76/76/75 80/80/79 75/75/74
f 83/83/82 64/64/63 59/59/58
f 61/61/60 84/84/83 62/62/61
f 61/61/60 82/82/81 84/84/83
f 85/85/84 84/84/83 82/82/81
f 85/85/84 82/82/81 81/81/80
f 81/81/80 86/86/85 85/85/84
f 86/86/85 81/81/80 59/59/58
f 86/86/85 59/59/58 87/87/86
f 87/87/86 59/59/58 57/57/56
f 54/54/53 87/87/86 57/57/56
f 57/57/56 6/4/4 54/54/53
f 88/88/87 89/89/88 90/90/89
f 90/90/89 33/30/30 88/88/87
f 33/30/30 90/90/89 91/91/90
f 91/91/90 92/92/91 33/30/30
f 89/89/88 93/93/92 85/85/84
f 90/90/89 85/85/84 86/86/85
f 86/86/85 91/91/90 90/90/89
f 86/86/85 87/87/86 91/91/90
f 92/92/91 91/91/90 87/87/86
f 92/92/91 87/87/86 54/54/53
f 93/93/92 84/84/83 85/85/84
f 77/77/76 94/94/93 76/76/75
f 93/93/92 95/95/94 84/84/83
f 84/84/83 95/95/94 77/77/76
f 62/62/61 84/84/83 77/77/76
f 37/35/35 19/37/36 36/34/34
f 17/36/17 44/96/43 36/34/34
f 96/97/95 36/34/34 44/96/43
f 44/96/43 97/98/96 96/97/95
f 96/97/95 35/32/32 36/34/34
f 96/97/95 88/88/87 35/32/32
f 96/97/95 98/99/97 88/88/87
f 35/32/32 88/88/87 33/30/30
f 31/31/31 34/33/33 33/30/30
f 32/28/28 33/30/30 92/92/91
f 32/28/28 92/92/91 4/2/2
f 4/2/2 92/92/91 54/54/53
f 30/29/29 31/31/31 32/28/28
f 99/100/98 100/101/99 101/102/100
f 102/103/101 103/104/102 104/105/103
f 104/105/103 105/106/104 102/103/101
f 102/103/101 106/107/105 103/104/102
f 107/108/106 103/104/102 106/107/105
f 108/109/107 109/110/108 102/103/101
f 109/110/108 42/42/41 106/107/105
f 106/107/105 38/38/37 107/108/106
f 39/39/38 107/108/106 38/38/37
f 107/108/106 39/39/38 110/111/109
f 107/108/106 110/111/109 103/104/102
f 101/102/100 103/104/102 110/111/109
f 111/112/110 110/111/109 41/41/40
f 39/39/38 41/41/40 110/111/109
f 101/102/100 110/111/109 99/100/98
f 111/112/110 99/100/98 110/111/109
f 95/95/94 112/113/111 77/77/76
f 113/114/112 114/115/113 49/49/48
f 49/49/48 29/27/27 113/114/112
f 49/49/48 46/46/45 29/27/27
f 20/19/19 29/27/27 46/46/45
f 46/46/45 45/45/44 20/19/19
f 20/19/19 45/45/44 16/16/16
f 16/16/16 45/45/44 17/17/17
f 19/116/36 18/18/18 17/17/17
f 18/18/18 21/20/20 16/16/16
f 115/117/114 23/21/21 24/23/23
f 23/21/21 115/117/114 116/118/115
f 22/22/22 23/21/21 116/118/115
f 117/119/116 116/118/115 115/117/114
f 21/20/20 26/26/26 20/19/19
f 29/27/27 26/26/26 28/25/25
f 29/27/27 28/25/25 113/114/112
f 113/114/112 28/25/25 118/120/117
f 118/120/117 108/109/107 113/114/112
f 25/121/118 22/22/22 116/118/115
f 109/110/108 108/109/107 117/119/116
f 118/120/117 119/122/119 117/119/116
f 28/25/25 119/122/119 118/120/117
f 28/25/25 27/24/24 119/122/119
f 119/122/119 116/118/115 117/119/116
f 119/122/119 25/121/118 116/118/115
f 27/24/24 25/121/118 119/122/119
f 109/110/108 115/117/114 42/42/41
f 117/119/116 115/117/114 109/110/108
f 118/120/117 117/119/116 108/109/107
f 94/94/93 77/77/76 112/113/111
f 112/113/111 95/95/94 121/123/120
f 122/124/121 121/123/120 95/95/94
f 121/123/120 122/124/121 123/125/122
f 123/125/122 120/126/123 121/123/120
f 38/38/37 106/107/105 42/42/41
f 106/107/105 102/103/101 109/110/108
f 114/115/113 113/114/112 108/109/107
f 114/115/113 108/109/107 105/106/104
f 102/103/101 105/106/104 108/109/107
f 104/105/103 103/104/102 124/127/124
f 103/104/102 101/102/100 124/127/124
f 101/102/100 100/101/99 124/127/124
f 125/128/125 124/127/124 100/101/99
f 95/95/94 93/93/92 122/124/121
f 126/129/126 122/124/121 93/93/92
f 122/124/121 126/129/126 127/130/127
f 127/130/127 126/129/126 128/131/128
f 126/129/126 98/99/97 128/131/128
f 97/98/96 128/131/128 98/99/97
f 80/80/79 76/76/75 94/94/93
f 98/99/97 96/97/95 97/98/96
f 127/130/127 123/125/122 122/124/121
f 85/85/84 90/90/89 89/89/88
f 126/129/126 93/93/92 89/89/88
f 126/129/126 89/89/88 98/99/97
f 89/89/88 88/88/87 98/99/97
f 83/83/82 60/60/59 64/64/63
f 13/13/13 43/43/42 72/72/71
f 129/132/129 72/72/71 43/43/42
f 129/132/129 67/67/66 72/72/71
f 68/68/67 72/72/71 67/67/66
f 66/66/65 68/68/67 65/65/64
f 63/63/62 66/66/65 64/64/63
f 130/133/130 65/65/64 67/67/66
f 64/64/63 65/65/64 58/58/57
f 130/133/130 58/58/57 65/65/64
f 130/133/130 56/56/55 58/58/57
f 55/55/54 56/56/55 130/133/130
f 55/55/54 130/133/130 67/67/66
f 58/58/57 59/59/58 64/64/63
f 53/53/52 56/56/55 55/55/54
f 52/52/51 51/51/50 55/55/54
f 55/55/54 67/67/66 52/52/51
f 129/132/129 52/52/51 67/67/66
f 43/43/42 24/23/23 52/52/51
f 129/132/129 43/43/42 52/52/51
f 131/134/131 132/135/132 128/136/128
f 127/137/127 128/136/128 132/135/132
f 133/138/133 127/137/127 132/135/132
f 127/137/127 133/138/133 123/139/122
f 133/138/133 134/140/134 123/139/122
f 120/141/123 123/139/122 134/140/134
f 135/142/135 136/143/136 125/128/125
f 124/127/124 125/128/125 136/143/136
f 136/143/136 137/144/137 124/127/124
f 104/105/103 124/127/124 137/144/137
f 135/142/135 138/145/138 136/143/136
f 138/145/138 139/146/139 136/143/136
f 139/146/139 137/144/137 136/143/136
f 139/146/139 140/147/140 137/144/137
f 105/106/104 104/105/103 137/144/137
f 141/148/141 105/106/104 137/144/137
f 137/144/137 140/147/140 141/148/141
f 142/149/142 141/148/141 140/147/140
f 142/149/142 140/147/140 131/134/131
f 132/135/132 131/134/131 140/147/140
f 132/135/132 140/147/140 133/138/133
f 139/146/139 133/138/133 140/147/140
f 134/140/134 133/138/133 139/146/139
f 138/145/138 134/140/134 139/146/139
f 50/50/49 49/49/48 114/115/113
f 114/115/113 105/106/104 50/50/49
f 141/148/141 50/50/49 105/106/104
f 50/50/49 141/148/141 47/47/46
f 142/149/142 47/47/46 141/148/141
f 142/149/142 48/48/47 47/47/46
f 142/149/142 131/134/131 48/48/47
f 131/134/131 97/150/96 48/48/47
f 131/134/131 128/136/128 97/150/96
f 97/150/96 44/44/43 48/48/47
f 48/48/47 45/45/44 47/47/46
f 47/47/46 46/46/45 50/50/49
f 115/117/114 24/23/23 42/42/41
f 42/42/41 24/23/23 43/43/42
f 13/13/13 38/38/37 43/43/42
