# Blender v2.72 (sub 0) OBJ File: 'untitled.blend'
# www.blender.org
mtllib TopLeftHend.mtl
o rdmobj00.000
v 0.235241 -0.651754 0.106889
v 0.327250 -0.589902 0.176160
v 0.190289 -0.553662 0.127580
v 0.293871 -0.483943 0.171841
v 0.225483 -0.395480 0.233816
v 0.246089 -0.498062 -0.276732
v 0.305608 -0.589527 -0.268010
v 0.150882 -0.570810 -0.176701
v 0.099413 -0.611724 -0.091032
v 0.007871 -0.522560 -0.066316
v 0.031196 -0.518079 0.021857
v 0.111732 -0.601820 0.007129
v 0.160881 -0.693269 -0.097853
v 0.162083 -0.693318 0.004597
v 0.121786 -0.471770 0.167345
v 0.209610 -0.661931 -0.178508
v 0.220494 -0.781502 -0.112623
v 0.254918 -0.760834 -0.185207
v 0.278148 -0.757034 0.116826
v 0.218810 -0.789398 0.003050
v 0.128339 -0.272250 0.257443
v 0.375940 -0.707411 0.186328
v -0.051801 -0.368645 0.035545
v 0.001498 -0.343603 0.184052
v -0.056570 -0.361798 -0.051491
v 0.069860 -0.479572 -0.151667
v 0.227736 -0.194071 0.218437
v 0.080982 -0.078975 0.231149
v 0.005552 -0.136303 0.258455
v 0.138614 -0.036471 0.190135
v 0.284475 -0.138869 0.068751
v 0.266058 -0.156403 0.162859
v 0.163195 -0.001050 0.095209
v 0.273150 -0.122481 -0.041032
v 0.169861 0.029426 -0.025237
v 0.160541 0.027448 -0.092931
v 0.250341 -0.129495 -0.112297
v 0.134484 0.013692 -0.146202
v 0.203084 -0.150133 -0.181646
v 0.018629 -0.066567 -0.202032
v 0.094450 -0.232027 -0.231156
v 0.378357 -0.270065 0.148759
v 0.333972 -0.310304 0.205618
v 0.395775 -0.254465 0.044346
v 0.387799 -0.253073 -0.068399
v 0.354822 -0.267949 -0.150703
v 0.298359 -0.289506 -0.226205
v 0.181770 -0.379002 -0.258299
v 0.366619 -0.410677 -0.272060
v 0.431870 -0.366410 -0.197693
v 0.480003 -0.346071 -0.079449
v 0.492878 -0.346933 0.044596
v 0.487249 -0.468964 -0.186244
v -0.027241 -0.328741 -0.136107
v -0.085565 -0.151622 -0.127707
v 0.417755 -0.509398 -0.263549
v 0.487177 -0.613751 -0.271502
v 0.371534 -0.689858 -0.271153
v 0.567491 -0.564786 -0.203236
v 0.593106 -0.584904 0.165751
v 0.626969 -0.560326 0.066705
v 0.629430 -0.547141 -0.076074
v 0.551948 -0.426376 -0.078542
v 0.562112 -0.428070 0.050536
v 0.467857 -0.376599 0.151908
v 0.536436 -0.455212 0.152246
v 0.404650 -0.416327 0.207974
v 0.443571 -0.517380 0.222475
v 0.499381 -0.645504 0.218502
v -0.111355 -0.191782 0.049294
v -0.074539 -0.183092 0.188456
v -0.111076 -0.182728 -0.040589
v 0.105973 -0.666959 -0.190408
v -0.013257 -0.479912 -0.220770
v 0.190628 -0.594704 -0.333446
v 0.245229 -0.224815 -0.310762
v 0.331734 -0.162204 -0.233243
v 0.420182 -0.413537 -0.319724
v 0.188141 -0.661605 0.189583
v 0.292720 -0.584198 0.258321
v 0.040023 -0.512037 0.218540
v -0.057913 -0.384255 0.217500
v -0.075339 -0.409336 0.075240
v 0.017320 -0.534961 0.069751
v 0.125322 -0.685203 0.076034
v 0.391750 -0.497436 0.247654
v 0.246909 -0.335012 0.285459
v 0.134738 -0.435560 0.317791
v 0.386483 -0.132130 -0.127463
v 0.395351 -0.155009 0.013846
v 0.554692 -0.322422 -0.147729
v 0.372494 -0.187573 0.118217
v 0.553762 -0.336360 0.019824
v 0.528073 -0.372728 0.123622
v 0.320397 -0.249417 0.198496
v 0.483995 -0.418882 0.192996
v 0.320738 -0.494100 -0.349820
v 0.501591 -0.354397 -0.246503
v -0.083741 -0.226075 -0.384616
v 0.001246 -0.097259 -0.382292
v 0.151611 -0.296208 -0.361747
v 0.096106 -0.033888 -0.312392
v 0.168277 0.021734 -0.228336
v -0.071871 -0.428621 -0.095468
v 0.009985 -0.566092 -0.079538
v 0.101060 -0.695277 -0.041305
v 0.041810 -0.397666 -0.341824
v 0.162708 -0.265607 0.047461
v -0.124014 0.516683 0.100706
v -0.125970 0.449431 0.237916
v -0.139730 0.303909 0.371477
v -0.155924 0.119103 0.477295
v -0.006571 0.223698 0.308326
v -0.008379 0.419128 0.066074
v -0.047216 0.424891 -0.053313
v 0.138833 0.229851 0.040891
v 0.106527 0.233528 -0.092341
v 0.227648 0.054850 -0.109999
v 0.040800 0.207047 -0.224798
v -0.029985 0.147126 -0.316788
v -0.104114 0.388414 -0.197112
v -0.153695 0.298343 -0.300587
v -0.196225 0.169647 -0.375063
v -0.099128 0.044102 -0.380055
v -0.115319 -0.340166 -0.262664
v 0.219379 -0.089359 0.228319
v 0.134758 -0.183261 0.320326
v 0.259685 0.008437 0.136855
v 0.284840 0.017299 0.017828
v 0.009746 -0.303265 0.356358
v 0.106014 0.095129 0.269978
v 0.027252 -0.048044 0.367146
v 0.136372 0.184969 0.158951
v -0.131919 -0.348457 0.112996
v -0.112777 -0.364287 0.090408
v -0.133071 -0.273380 0.233500
v -0.102323 -0.311646 0.218424
v -0.095578 -0.381096 0.073486
v -0.065138 -0.215069 0.393399
v -0.122245 -0.143487 0.417131
v -0.132948 -0.344947 -0.116036
v -0.184039 -0.253764 -0.292005
v -0.163867 -0.107568 -0.401289
v -0.219362 -0.190599 -0.327875
v -0.225328 0.000479 -0.406879
v 0.010627 0.362622 0.185855
v -0.061155 0.049319 0.426564
v -0.153310 -0.091355 0.448157
v -0.156821 -0.248820 0.257653
v -0.173073 -0.258821 0.316032
v -0.138980 -0.367294 0.140131
v -0.156867 -0.312710 -0.115818
v -0.180059 -0.289265 -0.108938
vt 0.736328 0.036530
vt 0.721191 0.039093
vt 0.734375 0.053650
vt 0.715332 0.082581
vt 0.716309 0.096313
vt 0.734375 0.082947
vt 0.738281 0.200928
vt 0.739258 0.183472
vt 0.723145 0.200195
vt 0.714355 0.201050
vt 0.713867 0.215454
vt 0.723145 0.215576
vt 0.734863 0.215820
vt 0.739746 0.167725
vt 0.722168 0.166748
vt 0.722168 0.184082
vt 0.717285 0.109375
vt 0.719727 0.125000
vt 0.737305 0.108337
vt 0.720215 0.137817
vt 0.738770 0.127197
vt 0.740234 0.140381
vt 0.721680 0.151001
vt 0.740723 0.151733
vt 0.733887 0.069763
vt 0.735840 0.095825
vt 0.700684 0.055817
vt 0.696289 0.069641
vt 0.714355 0.069458
vt 0.696289 0.082764
vt 0.697266 0.095154
vt 0.722168 0.011314
vt 0.717285 0.025787
vt 0.730469 0.011429
vt 0.727051 0.025101
vt 0.739746 0.022568
vt 0.716309 0.054047
vt 0.741211 0.011574
vt 0.066956 0.439941
vt 0.102478 0.444336
vt 0.071899 0.428223
vt 0.065735 0.455078
vt 0.072632 0.471680
vt 0.086609 0.479004
vt 0.099609 0.478760
vt 0.119690 0.466309
vt 0.110107 0.474121
vt 0.126343 0.453857
vt 0.124695 0.432861
vt 0.127563 0.442627
vt 0.115417 0.421387
vt 0.103027 0.414795
vt 0.087280 0.415039
vt 0.673828 0.149780
vt 0.661621 0.156006
vt 0.673828 0.173340
vt 0.681641 0.122559
vt 0.679688 0.109375
vt 0.658691 0.111267
vt 0.699219 0.109131
vt 0.677734 0.095215
vt 0.677734 0.082886
vt 0.657227 0.096558
vt 0.660156 0.083313
vt 0.666504 0.070618
vt 0.680664 0.070435
vt 0.708496 0.041626
vt 0.705078 0.149902
vt 0.708008 0.166504
vt 0.702637 0.135742
vt 0.700684 0.123047
vt 0.710449 0.184448
vt 0.688477 0.148804
vt 0.693848 0.166992
vt 0.684570 0.134766
vt 0.708496 0.215454
vt 0.709961 0.215454
vt 0.704590 0.203247
vt 0.707520 0.202271
vt 0.711426 0.215454
vt 0.701172 0.184448
vt 0.694824 0.184326
vt 0.719238 0.011276
vt 0.711426 0.028809
vt 0.698730 0.043640
vt 0.687500 0.056549
vt 0.690918 0.046906
vt 0.675781 0.057739
vt 0.662109 0.122742
vt 0.649414 0.124573
vt 0.666504 0.134521
vt 0.682617 0.169556
vt 0.653320 0.138794
vt 0.690918 0.184570
vt 0.703125 0.204102
vt 0.674316 0.183228
vt 0.654785 0.170776
vt 0.674316 0.186279
vt 0.652344 0.173706
vt 0.625977 0.152710
vt 0.707520 0.030624
vt 0.717773 0.011253
vt 0.704590 0.032349
vt 0.716309 0.011238
vt 0.007587 0.177856
vt 0.007587 0.181030
vt 0.035553 0.171875
vt 0.804688 0.135498
vt 0.827637 0.136108
vt 0.810059 0.114258
vt 0.833984 0.115417
vt 0.837402 0.090881
vt 0.968750 0.125488
vt 0.969238 0.145142
vt 0.992676 0.128662
vt 0.765625 0.116089
vt 0.767578 0.094238
vt 0.749023 0.117371
vt 0.784180 0.094482
vt 0.783203 0.114807
vt 0.765137 0.135376
vt 0.782227 0.134888
vt 0.812988 0.092041
vt 0.749023 0.135864
vt 0.762207 0.156006
vt 0.749023 0.157959
vt 0.780762 0.156006
vt 0.802246 0.157227
vt 0.838867 0.060730
vt 0.785156 0.061859
vt 0.813965 0.060394
vt 0.768555 0.061890
vt 0.749023 0.092590
vt 0.861816 0.062286
vt 0.858398 0.025391
vt 0.839844 0.025391
vt 0.871582 0.025391
vt 0.892578 0.064026
vt 0.875488 0.062561
vt 0.891113 0.025391
vt 0.913086 0.062500
vt 0.914551 0.025391
vt 0.927246 0.025391
vt 0.926758 0.062500
vt 0.938477 0.025391
vt 0.942383 0.062042
vt 0.964844 0.025391
vt 0.966797 0.065186
vt 0.875488 0.094666
vt 0.860840 0.093994
vt 0.893555 0.096130
vt 0.912598 0.097351
vt 0.927734 0.097717
vt 0.943359 0.097046
vt 0.966797 0.099915
vt 0.947266 0.123352
vt 0.931152 0.121887
vt 0.911621 0.122009
vt 0.892090 0.121277
vt 0.930176 0.142456
vt 0.992676 0.070923
vt 0.992676 0.025391
vt 0.992676 0.103577
vt 0.947754 0.142944
vt 0.947754 0.164673
vt 0.992676 0.170044
vt 0.992676 0.147705
vt 0.968262 0.166626
vt 0.909668 0.141113
vt 0.908203 0.165405
vt 0.890137 0.140381
vt 0.873047 0.121033
vt 0.873047 0.140259
vt 0.857422 0.118774
vt 0.852051 0.138428
vt 0.823730 0.160156
vt 0.847656 0.163574
vt 0.868164 0.164429
vt 0.929688 0.164063
vt 0.885742 0.165283
vt 0.791992 0.025391
vt 0.818359 0.025391
vt 0.775391 0.025391
vt 0.749023 0.060181
vt 0.749023 0.025391
vn 0.106400 -0.965800 -0.236200
vn -0.723500 -0.562600 -0.399900
vn 0.249700 -0.809600 -0.531100
vn 0.370300 0.322200 -0.871200
vn 0.540200 0.514100 -0.666200
vn 0.703600 -0.493500 -0.511200
vn 0.278200 -0.943000 0.182600
vn 0.562800 -0.761300 0.321800
vn -0.598700 -0.593000 0.538400
vn -0.721700 -0.538500 0.434800
vn -0.801800 -0.583600 0.128000
vn -0.787000 -0.584100 0.198800
vn 0.185400 -0.977000 0.105300
vn 0.694100 -0.665700 0.274100
vn 0.404000 0.132300 0.905100
vn -0.061800 -0.333900 0.940500
vn 0.735200 0.629900 -0.250400
vn 0.792200 0.581700 0.184300
vn 0.933600 -0.323500 -0.153800
vn 0.706700 0.472600 0.526500
vn 0.905000 -0.422600 0.048800
vn 0.861500 -0.476900 0.174000
vn 0.568500 0.361700 0.738900
vn 0.826300 -0.513800 0.230400
vn 0.581400 -0.626300 -0.519200
vn 0.821300 -0.414000 -0.392400
vn -0.233300 -0.329600 -0.914800
vn 0.274500 0.142700 -0.950900
vn 0.172500 0.047700 -0.983800
vn 0.485900 0.334600 -0.807400
vn 0.614300 0.475500 -0.629700
vn -0.819300 -0.572500 -0.030500
vn -0.838900 -0.543700 -0.021700
vn 0.163000 -0.986300 -0.026200
vn -0.324400 -0.380400 -0.866100
vn 0.576200 -0.791400 -0.204100
vn 0.632700 0.401400 0.662200
vn 0.580600 0.443700 0.682600
vn 0.546000 0.182400 0.817700
vn 0.810900 0.585000 0.012900
vn 0.741700 0.591500 -0.316300
vn 0.715000 0.626200 -0.310900
vn 0.739800 0.583200 -0.335500
vn 0.620300 0.514300 -0.592200
vn 0.462200 0.379800 -0.801300
vn 0.605900 0.577000 -0.547700
vn 0.456600 0.464500 -0.758800
vn 0.297900 0.298100 -0.906900
vn 0.272800 0.203600 -0.940300
vn -0.669400 -0.626000 -0.400000
vn 0.648300 0.264700 0.713900
vn 0.471700 0.100100 0.876000
vn 0.783800 0.444500 0.433500
vn 0.817100 0.575000 0.041200
vn -0.148800 -0.414500 0.897800
vn 0.672400 0.326800 0.664100
vn 0.516800 0.043200 0.855000
vn 0.775000 0.494500 0.393500
vn 0.330400 -0.933400 0.140100
vn -0.572000 -0.800500 0.179000
vn -0.453000 -0.745100 0.489500
vn -0.684200 -0.603900 0.408800
vn -0.759400 -0.641300 0.109900
vn -0.145900 -0.441700 0.885200
vn -0.113600 -0.488500 0.865100
vn -0.798500 -0.601000 -0.032500
vn -0.704800 -0.591800 -0.391200
vn -0.200500 -0.205500 -0.957900
vn -0.415400 -0.568700 -0.710000
vn 0.040000 0.015600 -0.999100
vn 0.749200 0.660500 0.048900
vn 0.626700 0.716700 0.305900
vn 0.702900 0.581000 0.410300
vn 0.541000 0.066800 0.838300
vn 0.592200 0.631900 0.500000
vn 0.378700 -0.307900 0.872800
vn 0.523900 -0.644400 0.557000
vn 0.971900 -0.202300 0.119900
vn 0.946300 -0.233600 0.223400
vn -0.767200 -0.638900 -0.056000
vn -0.706400 -0.698800 -0.112100
vn -0.603000 -0.294000 0.741500
vn -0.373900 -0.128800 0.918500
vn -0.408100 -0.493100 0.768300
vn -0.133000 -0.237700 0.962200
vn 0.092500 -0.293100 0.951600
vn -0.283200 -0.149400 -0.947300
vn -0.257800 -0.183000 -0.948700
vn -0.598600 -0.374700 -0.708000
vn -0.760400 -0.585900 -0.280200
vn -0.837400 -0.504800 -0.209500
vn -0.730300 -0.562400 0.387700
vn -0.706900 -0.586600 0.395200
vn -0.806100 -0.513400 -0.294000
vn -0.815200 -0.470700 0.337500
vn -0.411200 -0.548800 0.727800
vn -0.620300 -0.325800 -0.713500
vn -0.814700 -0.501800 -0.290500
vn -0.655400 -0.285000 -0.699400
vn -0.822600 -0.506500 0.258400
vn -0.648200 -0.239800 0.722700
vn -0.014600 -0.114900 0.993300
vn -0.869900 -0.439200 0.224300
vn -0.615300 -0.466600 0.635400
vn -0.905300 -0.366300 -0.215000
vn -0.632800 -0.308300 -0.710200
vn 0.413500 0.293600 0.861800
vn 0.275500 0.256700 0.926400
vn -0.157500 -0.081600 0.984100
vn 0.574300 0.502200 0.646500
vn 0.732500 0.662700 0.155800
vn 0.656500 0.575900 0.487100
vn 0.771100 0.578600 0.265700
vn 0.767400 0.630400 -0.116800
vn 0.827900 0.560400 0.024100
vn 0.786900 0.524700 -0.324900
vn 0.703800 0.551500 -0.447800
vn 0.547600 0.416800 -0.725600
vn 0.420800 0.432700 -0.797300
vn -0.115300 0.130300 -0.984700
vn -0.214200 0.079400 -0.973500
vn 0.642100 0.585700 0.494500
vn 0.368500 0.203700 0.907000
vn 0.712200 0.696200 0.089400
vn 0.701900 0.679700 -0.212800
vn 0.601400 0.625600 -0.496800
vn 0.343500 0.476900 -0.809000
vn -0.282700 0.021200 -0.959000
vn 0.302000 0.279000 -0.911500
vn 0.601900 0.521400 -0.604800
vn 0.701000 0.675200 -0.229400
vn 0.726400 0.676300 0.122300
vn 0.645700 0.403800 -0.648000
vn -0.722300 -0.278500 -0.633000
vn -0.720200 -0.192900 -0.666400
vn 0.335100 0.187600 -0.923300
vn 0.241000 0.263100 -0.934200
vn -0.273900 -0.122600 -0.953900
vn 0.777600 0.549300 -0.305800
vn 0.814500 0.528000 -0.240300
vn 0.809700 0.566400 0.153600
vn 0.616700 0.524900 0.586600
vn 0.659800 0.447500 0.603600
vn 0.136000 0.170200 0.976000
vn 0.065500 0.091900 0.993600
vn -0.395400 -0.082300 0.914800
vn 0.054100 0.024100 0.998200
vn 0.643200 0.315900 0.697500
vn 0.547700 0.567600 -0.614700
vn 0.869600 0.437300 0.229300
vn -0.927600 -0.342200 0.150100
vn -0.741200 -0.366600 0.562300
vn -0.934700 -0.281800 -0.216500
usemtl mi_obeseMale_cloth
s 1
f 73/1/1 74/2/2 75/3/3
f 76/4/4 77/5/5 78/6/6
f 79/7/7 80/8/8 81/9/9
f 82/10/10 83/11/11 81/9/9
f 79/7/7 81/9/9 84/12/12
f 85/13/13 79/7/7 84/12/12
f 86/14/14 87/15/15 80/8/8
f 80/8/8 88/16/16 81/9/9
f 89/17/17 90/18/18 91/19/19
f 90/18/18 92/20/20 93/21/21
f 92/20/20 94/22/22 93/21/21
f 92/20/20 95/23/23 94/22/22
f 95/23/23 87/15/15 96/24/24
f 78/6/6 97/25/25 76/4/4
f 98/26/26 77/5/5 91/19/19
f 99/27/27 100/28/28 101/29/29
f 100/28/28 102/30/30 101/29/29
f 102/30/30 103/31/31 76/4/4
f 83/32/11 104/33/32 84/34/12
f 105/35/33 106/36/34 84/34/12
f 106/36/34 105/35/33 73/1/1
f 75/3/3 107/37/35 97/25/25
f 101/29/29 76/4/4 97/25/25
f 85/38/13 84/34/12 106/36/34
f 106/39/34 108/40/36 85/41/13
f 73/42/1 108/40/36 106/39/34
f 75/43/3 108/40/36 73/42/1
f 97/44/25 108/40/36 75/43/3
f 78/45/6 108/40/36 97/44/25
f 91/46/19 108/40/36 98/47/26
f 93/48/21 108/40/36 91/46/19
f 96/49/24 108/40/36 94/50/22
f 86/51/14 108/40/36 96/49/24
f 80/52/8 108/40/36 86/51/14
f 79/53/7 108/40/36 80/52/8
f 85/41/13 108/40/36 79/53/7
f 93/48/21 94/50/22 108/40/36
f 78/45/6 98/47/26 108/40/36
f 101/29/29 97/25/25 107/37/35
f 107/37/35 75/3/3 74/2/2
f 113/54/37 111/55/38 112/56/39
f 116/57/40 117/58/41 115/59/42
f 117/58/41 116/57/40 118/60/43
f 117/58/41 118/60/43 119/61/44
f 103/31/31 119/61/44 118/60/43
f 119/61/44 103/31/31 120/62/45
f 102/30/30 120/62/45 103/31/31
f 119/61/44 121/63/46 117/58/41
f 120/62/45 122/64/47 119/61/44
f 123/65/48 122/64/47 120/62/45
f 100/28/28 124/66/49 102/30/30
f 77/5/5 76/4/4 103/31/31
f 76/4/4 101/29/29 102/30/30
f 99/27/27 101/29/29 107/37/35
f 125/67/50 99/27/27 107/37/35
f 125/67/50 107/37/35 74/2/2
f 98/26/26 78/6/6 77/5/5
f 86/14/14 96/24/24 87/15/15
f 96/24/24 94/22/22 95/23/23
f 93/21/21 91/19/19 90/18/18
f 89/17/17 91/19/19 77/5/5
f 77/5/5 103/31/31 89/17/17
f 126/68/51 127/69/52 95/23/23
f 95/23/23 92/20/20 126/68/51
f 128/70/53 126/68/51 92/20/20
f 92/20/20 90/18/18 128/70/53
f 129/71/54 128/70/53 90/18/18
f 90/18/18 89/17/17 129/71/54
f 127/69/52 130/72/55 87/15/15
f 131/73/56 132/74/57 126/68/51
f 128/70/53 131/73/56 126/68/51
f 116/57/40 133/75/58 129/71/54
f 118/60/43 116/57/40 129/71/54
f 118/60/43 129/71/54 89/17/17
f 118/60/43 89/17/17 103/31/31
f 130/72/55 82/10/10 88/16/16
f 88/16/16 80/8/8 87/15/15
f 134/76/59 135/77/60 136/78/61
f 137/79/62 136/78/61 135/77/60
f 135/77/60 138/80/63 137/79/62
f 82/10/10 137/79/62 138/80/63
f 83/11/11 82/10/10 138/80/63
f 84/12/12 81/9/9 83/11/11
f 81/9/9 88/16/16 82/10/10
f 82/10/10 130/72/55 137/79/62
f 130/72/55 139/81/64 137/79/62
f 136/78/61 137/79/62 139/81/64
f 139/81/64 140/82/65 136/78/61
f 139/81/64 132/74/57 140/82/65
f 128/70/53 129/71/54 133/75/58
f 131/73/56 128/70/53 133/75/58
f 127/69/52 126/68/51 132/74/57
f 132/74/57 139/81/64 127/69/52
f 130/72/55 127/69/52 139/81/64
f 88/16/16 87/15/15 130/72/55
f 87/15/15 95/23/23 127/69/52
f 74/2/2 105/35/33 104/33/32
f 125/67/50 74/2/2 104/33/32
f 83/32/11 138/83/63 104/33/32
f 141/84/66 104/33/32 138/83/63
f 104/33/32 141/84/66 125/67/50
f 142/85/67 125/67/50 141/84/66
f 125/67/50 142/85/67 99/27/27
f 142/85/67 143/86/68 99/27/27
f 99/27/27 143/86/68 100/28/28
f 143/86/68 124/66/49 100/28/28
f 120/62/45 102/30/30 124/66/49
f 143/86/68 144/87/69 145/88/70
f 143/86/68 145/88/70 124/66/49
f 145/88/70 123/65/48 124/66/49
f 123/65/48 120/62/45 124/66/49
f 121/63/46 119/61/44 122/64/47
f 115/59/42 117/58/41 121/63/46
f 115/59/42 114/89/71 116/57/40
f 114/89/71 109/90/72 146/91/73
f 147/92/74 140/82/65 132/74/57
f 147/92/74 132/74/57 131/73/56
f 147/92/74 131/73/56 113/54/37
f 131/73/56 133/75/58 113/54/37
f 146/91/73 113/54/37 133/75/58
f 133/75/58 116/57/40 146/91/73
f 114/89/71 146/91/73 116/57/40
f 110/93/75 146/91/73 109/90/72
f 110/93/75 111/55/38 146/91/73
f 113/54/37 146/91/73 111/55/38
f 112/56/39 147/92/74 113/54/37
f 112/56/39 148/94/76 147/92/74
f 140/82/65 147/92/74 148/94/76
f 140/82/65 148/94/76 149/95/77
f 149/95/77 136/78/61 140/82/65
f 136/78/61 149/95/77 134/76/59
f 134/96/59 149/97/77 151/98/78
f 150/99/79 151/98/78 149/97/77
f 149/97/77 148/100/76 150/99/79
f 144/87/69 143/86/68 142/85/67
f 144/87/69 142/85/67 152/101/80
f 141/84/66 152/101/80 142/85/67
f 141/84/66 138/83/63 152/101/80
f 138/83/63 135/102/60 152/101/80
f 153/103/81 152/101/80 135/102/60
f 152/101/80 153/103/81 144/87/69
f 135/102/60 134/104/59 153/103/81
f 105/35/33 84/34/12 104/33/32
f 74/2/2 73/1/1 105/35/33
f 134/105/59 151/106/78 153/107/81
usemtl m_obeseMale_skin
f 1/108/82 2/109/83 3/110/84
f 4/111/85 5/112/86 3/110/84
f 6/113/87 7/114/88 8/115/89
f 9/116/90 10/117/91 8/118/89
f 11/119/92 10/117/91 12/120/93
f 13/121/94 14/122/95 9/116/90
f 3/110/84 15/123/96 12/120/93
f 1/108/82 3/110/84 12/120/93
f 14/122/95 1/108/82 12/120/93
f 8/118/89 16/124/97 9/116/90
f 17/125/98 13/121/94 18/126/99
f 17/125/98 20/127/100 13/121/94
f 13/121/94 20/127/100 14/122/95
f 20/127/100 19/128/101 14/122/95
f 16/124/97 18/126/99 13/121/94
f 13/121/94 9/116/90 16/124/97
f 15/123/96 3/110/84 5/112/86
f 5/112/86 21/129/102 15/123/96
f 12/120/93 9/116/90 14/122/95
f 9/116/90 12/120/93 10/117/91
f 11/119/92 12/120/93 15/123/96
f 15/123/96 23/130/103 11/119/92
f 23/130/103 15/123/96 24/131/104
f 24/131/104 15/123/96 21/129/102
f 10/117/91 25/132/105 26/133/106
f 26/133/106 8/118/89 10/117/91
f 21/129/102 5/112/86 27/134/107
f 28/135/108 29/136/109 21/129/102
f 21/129/102 29/136/109 24/131/104
f 23/130/103 25/132/105 11/119/92
f 28/135/108 27/134/107 30/137/110
f 31/138/111 30/137/110 32/139/112
f 30/137/110 31/138/111 33/140/113
f 34/141/114 33/140/113 31/138/111
f 33/140/113 34/141/114 35/142/115
f 35/142/115 34/141/114 36/143/116
f 37/144/117 36/143/116 34/141/114
f 36/143/116 37/144/117 38/145/118
f 39/146/119 38/145/118 37/144/117
f 38/145/118 39/146/119 40/147/120
f 41/148/121 40/147/120 39/146/119
f 42/149/122 32/139/112 43/150/123
f 42/149/122 44/151/124 32/139/112
f 31/138/111 32/139/112 44/151/124
f 31/138/111 44/151/124 34/141/114
f 45/152/125 34/141/114 44/151/124
f 34/141/114 45/152/125 37/144/117
f 46/153/126 37/144/117 45/152/125
f 37/144/117 46/153/126 47/154/127
f 37/144/117 47/154/127 39/146/119
f 39/146/119 47/154/127 41/148/121
f 48/155/128 41/148/121 47/154/127
f 47/154/127 49/156/129 48/155/128
f 47/154/127 46/153/126 49/156/129
f 49/156/129 46/153/126 50/157/130
f 46/153/126 45/152/125 50/157/130
f 51/158/131 50/157/130 45/152/125
f 45/152/125 44/151/124 51/158/131
f 51/158/131 44/151/124 52/159/132
f 50/157/130 53/160/133 49/156/129
f 54/161/134 55/162/135 41/148/121
f 26/163/106 54/161/134 48/155/128
f 48/155/128 6/113/87 26/163/106
f 6/113/87 48/155/128 49/156/129
f 49/156/129 56/164/136 6/113/87
f 56/164/136 49/156/129 53/160/133
f 56/164/136 53/160/133 57/165/137
f 18/166/99 16/167/97 58/168/138
f 7/114/88 58/168/138 16/167/97
f 16/167/97 8/115/89 7/114/88
f 8/115/89 26/163/106 6/113/87
f 7/114/88 6/113/87 56/164/136
f 56/164/136 57/165/137 7/114/88
f 58/168/138 7/114/88 57/165/137
f 63/169/139 62/170/140 53/160/133
f 53/160/133 50/157/130 63/169/139
f 51/158/131 63/169/139 50/157/130
f 51/158/131 52/159/132 63/169/139
f 63/169/139 52/159/132 64/171/141
f 52/159/132 65/172/142 64/171/141
f 66/173/143 64/171/141 65/172/142
f 65/172/142 67/174/144 66/173/143
f 68/175/145 66/173/143 67/174/144
f 22/176/146 69/177/147 2/109/83
f 68/175/145 2/109/83 69/177/147
f 4/111/85 2/109/83 68/175/145
f 67/174/144 4/111/85 68/175/145
f 67/174/144 43/150/123 4/111/85
f 65/172/142 43/150/123 67/174/144
f 43/150/123 65/172/142 42/149/122
f 65/172/142 52/159/132 42/149/122
f 44/151/124 42/149/122 52/159/132
f 32/139/112 30/137/110 27/134/107
f 27/134/107 43/150/123 32/139/112
f 43/150/123 27/134/107 5/112/86
f 5/112/86 4/111/85 43/150/123
f 4/111/85 3/110/84 2/109/83
f 2/109/83 1/108/82 22/176/146
f 1/108/82 19/128/101 22/176/146
f 68/175/145 69/177/147 60/178/148
f 66/173/143 68/175/145 60/178/148
f 59/179/149 53/160/133 62/170/140
f 63/169/139 64/171/141 62/170/140
f 62/170/140 64/171/141 61/180/150
f 64/171/141 66/173/143 61/180/150
f 66/173/143 60/178/148 61/180/150
f 57/165/137 53/160/133 59/179/149
f 41/148/121 48/155/128 54/161/134
f 40/147/120 41/148/121 55/162/135
f 10/117/91 11/119/92 25/132/105
f 23/130/103 70/181/151 25/132/105
f 24/131/104 70/181/151 23/130/103
f 70/181/151 24/131/104 71/182/152
f 71/182/152 24/131/104 29/136/109
f 21/129/102 27/134/107 28/135/108
f 72/183/153 25/132/105 70/181/151
f 54/184/134 26/133/106 25/132/105
f 25/132/105 72/183/153 54/184/134
f 55/185/135 54/184/134 72/183/153
f 1/108/82 14/122/95 19/128/101
