# Blender v2.72 (sub 0) OBJ File: ''
# www.blender.org
mtllib panel.mtl
o Cube.001
v 0.085001 1.000094 1.005910
v -0.114999 1.000094 1.005910
v -0.114999 -0.999906 1.005909
v -0.114999 -0.999906 -0.994091
v -0.114999 1.000093 -0.994090
v 0.085001 1.000094 -0.994090
v 0.085001 -0.999906 1.005909
v 0.085001 -0.999905 -0.994091
vt 1.008140 -0.008140
vt 1.008140 1.008140
vt -0.008140 1.008140
vt -0.008140 -0.008140
vn 0.000000 -0.000000 1.000000
vn -0.000000 0.000000 -1.000000
vn 1.000000 0.000000 0.000000
vn -0.000000 1.000000 0.000000
vn -1.000000 0.000000 0.000000
vn 0.000000 -1.000000 -0.000000
usemtl Material.005
s off
f 1/1/1 2/2/1 3/3/1
f 4/1/2 5/2/2 6/3/2
f 7/4/3 8/1/3 6/2/3
f 1/4/4 6/1/4 5/2/4
f 5/1/5 4/2/5 3/3/5
f 8/4/6 7/1/6 3/2/6
f 7/4/1 1/1/1 3/3/1
f 8/4/2 4/1/2 6/3/2
f 1/3/3 7/4/3 6/2/3
f 2/3/4 1/4/4 5/2/4
f 2/4/5 5/1/5 3/3/5
f 4/3/6 8/4/6 3/2/6
